<?xml version="1.0" encoding="iso-8859-1"?>
<!-- Generator: Adobe Illustrator 19.0.0, SVG Export Plug-In . SVG Version: 6.00 Build 0)  -->
<svg fill="green" version="1.1" id="Capa_1" xmlns="http://www.w3.org/2000/svg"
     x="0px" y="0px"
     viewBox="0 0 477.867 477.867" style="enable-background:new 0 0 477.867 477.867;" xml:space="preserve">
<g>
	<g>
		<path d="M238.933,0C106.974,0,0,106.974,0,238.933s106.974,238.933,238.933,238.933s238.933-106.974,238.933-238.933
			C477.726,107.033,370.834,0.141,238.933,0z M370.466,165.666L199.799,336.333c-6.665,6.663-17.468,6.663-24.132,0l-68.267-68.267
			c-6.78-6.548-6.968-17.352-0.42-24.132c6.548-6.78,17.352-6.968,24.132-0.42c0.142,0.138,0.282,0.277,0.42,0.42l56.201,56.201
			l158.601-158.601c6.78-6.548,17.584-6.36,24.132,0.419C376.854,148.567,376.854,159.052,370.466,165.666z"/>
	</g>
</g>
    <g>
</g>
    <g>
</g>
    <g>
</g>
    <g>
</g>
    <g>
</g>
    <g>
</g>
    <g>
</g>
    <g>
</g>
    <g>
</g>
    <g>
</g>
    <g>
</g>
    <g>
</g>
    <g>
</g>
    <g>
</g>
    <g>
</g>
</svg>
