<?xml version="1.0" encoding="iso-8859-1"?>
<!-- Generator: Adobe Illustrator 19.0.0, SVG Export Plug-In . SVG Version: 6.00 Build 0)  -->
<svg version="1.1" id="Capa_1" xmlns="http://www.w3.org/2000/svg" x="0px"
     y="0px"
     viewBox="0 0 512 512" style="enable-background:new 0 0 512 512;" xml:space="preserve">
<g>
	<g>
		<g>
			<path d="M486.4,256h-8.533V51.2h8.533c14.138,0,25.6-11.462,25.6-25.6S500.539,0,486.4,0H25.6C11.461,0,0,11.461,0,25.6
				s11.461,25.6,25.6,25.6h8.533V256H25.6C11.461,256,0,267.462,0,281.6c0,14.138,11.461,25.6,25.6,25.6h460.8
				c14.138,0,25.6-11.462,25.6-25.6C512,267.462,500.539,256,486.4,256z M25.6,34.133c-4.71-0.006-8.527-3.823-8.533-8.533
				c0.006-4.71,3.823-8.527,8.533-8.533h460.8c4.713,0,8.533,3.82,8.533,8.533s-3.82,8.533-8.533,8.533H25.6z M460.8,51.2V256H51.2
				V51.2H460.8z M486.4,290.133H25.6c-4.713,0-8.533-3.82-8.533-8.533s3.82-8.533,8.533-8.533h460.8
				c4.71,0.006,8.527,3.823,8.533,8.533C494.927,286.31,491.11,290.127,486.4,290.133z"/>
            <path d="M145.067,195.696c4.713,0,8.533-3.821,8.533-8.533v-41.776l25.6,10.878v50.922l0.019,0.093
				c0.01,1.084,0.227,2.156,0.638,3.158c0.587,0.92,1.189,1.829,1.807,2.729c0.787,0.805,1.727,1.446,2.763,1.886l42.432,18.017
				c18.652,7.852,39.683,7.844,58.329-0.021l42.386-17.997c1.036-0.44,1.976-1.081,2.763-1.886c0.618-0.899,1.22-1.809,1.807-2.729
				c0.412-1.003,0.628-2.075,0.638-3.158l0.018-0.093v-50.922l33.796-14.362c5.41-2.514,8.871-7.938,8.871-13.904
				c0-5.966-3.461-11.39-8.871-13.904l-105.3-44.745c-3.383-1.45-7.213-1.45-10.596,0l-105.296,44.745
				c-5.48,2.434-8.973,7.909-8.871,13.904v59.163C136.534,191.875,140.354,195.696,145.067,195.696z M315.733,201.541l-37.167,15.78
				c-14.414,6.073-30.668,6.081-45.088,0.021l-37.213-15.801v-38.023l54.438,23.132c3.383,1.45,7.213,1.45,10.596,0l54.433-23.132
				V201.541z M256,85.641L355.675,128l-34.69,14.742l-0.075,0.032L256,170.358l-64.91-27.584l-0.075-0.032L156.325,128L256,85.641z"
            />
            <path d="M494.933,460.8h-17.067v-10.971c-0.219-21.605-12.617-41.235-32.031-50.716c13.592-11.603,18.513-30.447,12.329-47.214
				c-6.183-16.767-22.161-27.904-40.032-27.904s-33.849,11.137-40.032,27.904c-6.183,16.767-1.263,35.611,12.329,47.214
				c-19.414,9.482-31.812,29.111-32.031,50.716V460.8h-42.667v-10.971c-0.219-21.605-12.617-41.235-32.031-50.716
				c13.592-11.603,18.513-30.447,12.329-47.214c-6.183-16.767-22.161-27.904-40.032-27.904c-17.871,0-33.849,11.137-40.032,27.904
				c-6.183,16.767-1.263,35.611,12.329,47.214c-19.414,9.482-31.812,29.111-32.031,50.716V460.8H153.6v-10.971
				c-0.219-21.605-12.617-41.235-32.031-50.716c13.592-11.603,18.513-30.447,12.329-47.214
				c-6.183-16.767-22.161-27.904-40.032-27.904c-17.871,0-33.849,11.137-40.032,27.904c-6.183,16.767-1.263,35.611,12.329,47.214
				c-19.414,9.482-31.812,29.111-32.031,50.716V460.8H17.067C7.645,460.809,0.009,468.445,0,477.867v17.067
				c0.009,9.422,7.645,17.057,17.067,17.067h477.867c9.422-0.009,17.057-7.645,17.067-17.067v-17.067
				C511.991,468.445,504.355,460.809,494.933,460.8z M418.133,341.333c14.138,0,25.6,11.461,25.6,25.6s-11.461,25.6-25.6,25.6
				c-14.132-0.015-25.585-11.468-25.6-25.6C392.533,352.795,403.995,341.333,418.133,341.333z M375.467,449.829
				c1.329-22.591,20.037-40.23,42.667-40.23s41.337,17.639,42.667,40.23V460.8h-85.333V449.829z M256,341.333
				c14.138,0,25.6,11.461,25.6,25.6s-11.462,25.6-25.6,25.6c-14.132-0.015-25.585-11.468-25.6-25.6
				C230.4,352.795,241.862,341.333,256,341.333z M213.333,449.829c1.329-22.591,20.037-40.23,42.667-40.23
				s41.337,17.639,42.667,40.23V460.8h-85.333V449.829z M93.867,341.333c14.138,0,25.6,11.461,25.6,25.6s-11.461,25.6-25.6,25.6
				c-14.132-0.015-25.585-11.468-25.6-25.6C68.267,352.795,79.728,341.333,93.867,341.333z M51.2,449.829
				c0.718-22.871,19.793-40.856,42.667-40.229c22.873-0.627,41.948,17.358,42.667,40.229V460.8H51.2V449.829z M17.067,494.933
				v-17.067h477.867l0.012,17.067H17.067z"/>
		</g>
	</g>
</g>
    <g>
</g>
    <g>
</g>
    <g>
</g>
    <g>
</g>
    <g>
</g>
    <g>
</g>
    <g>
</g>
    <g>
</g>
    <g>
</g>
    <g>
</g>
    <g>
</g>
    <g>
</g>
    <g>
</g>
    <g>
</g>
    <g>
</g>
</svg>
