<svg height="512pt" viewBox="0 -10 512 512" width="512pt" xmlns="http://www.w3.org/2000/svg">
    <path
        d="m71.449219 367.800781c-39.398438 0-71.449219 32.054688-71.449219 71.453125v38.550782c0 8.285156 6.714844 15 15 15h112.898438c8.285156 0 15-6.714844 15-15v-38.550782c0-39.398437-32.050782-71.453125-71.449219-71.453125zm41.449219 95.003907h-82.898438v-23.550782c0-22.855468 18.59375-41.449218 41.449219-41.449218s41.449219 18.59375 41.449219 41.449218zm0 0"/>
    <path
        d="m71.449219 358.390625c27.480469 0 49.835937-22.355469 49.835937-49.835937 0-27.480469-22.355468-49.839844-49.835937-49.839844s-49.835938 22.359375-49.835938 49.839844c0 27.480468 22.355469 49.835937 49.835938 49.835937zm0-69.675781c10.9375 0 19.835937 8.898437 19.835937 19.839844 0 10.9375-8.898437 19.835937-19.835937 19.835937s-19.835938-8.898437-19.835938-19.835937c0-10.941407 8.898438-19.839844 19.835938-19.839844zm0 0"/>
    <path
        d="m256 367.800781c-39.398438 0-71.449219 32.054688-71.449219 71.449219v38.554688c0 8.285156 6.714844 15 15 15h112.898438c8.285156 0 15-6.714844 15-15v-38.550782c0-39.398437-32.050781-71.453125-71.449219-71.453125zm41.449219 95.003907h-82.898438v-23.550782c0-22.855468 18.59375-41.449218 41.449219-41.449218s41.449219 18.59375 41.449219 41.449218zm0 0"/>
    <path
        d="m206.164062 308.554688c0 27.480468 22.355469 49.835937 49.835938 49.835937s49.835938-22.355469 49.835938-49.835937c0-27.480469-22.355469-49.839844-49.835938-49.839844s-49.835938 22.359375-49.835938 49.839844zm49.835938-19.839844c10.9375 0 19.835938 8.898437 19.835938 19.839844 0 10.9375-8.898438 19.835937-19.835938 19.835937s-19.835938-8.898437-19.835938-19.835937c0-10.941407 8.898438-19.839844 19.835938-19.839844zm0 0"/>
    <path
        d="m440.550781 367.800781c-39.398437 0-71.449219 32.054688-71.449219 71.449219v38.554688c0 8.285156 6.714844 15 15 15h112.898438c8.285156 0 15-6.714844 15-15v-38.550782c0-39.398437-32.050781-71.453125-71.449219-71.453125zm41.449219 95.003907h-82.898438v-23.550782c0-22.855468 18.59375-41.449218 41.449219-41.449218s41.449219 18.589843 41.449219 41.449218zm0 0"/>
    <path
        d="m390.714844 308.554688c0 27.480468 22.355468 49.835937 49.835937 49.835937s49.835938-22.355469 49.835938-49.835937c0-27.480469-22.355469-49.839844-49.835938-49.839844s-49.835937 22.359375-49.835937 49.839844zm49.835937-19.839844c10.9375 0 19.835938 8.898437 19.835938 19.839844 0 10.9375-8.898438 19.835937-19.835938 19.835937-10.941406 0-19.835937-8.898437-19.835937-19.835937 0-10.941407 8.898437-19.839844 19.835937-19.839844zm0 0"/>
    <path
        d="m107.277344 234.089844h112.898437c8.285157 0 15-6.71875 15-15v-38.554688c0-39.398437-32.050781-71.449218-71.449219-71.449218-39.398437 0-71.449218 32.050781-71.449218 71.449218v38.554688c0 8.28125 6.714844 15 15 15zm15-53.554688c0-22.855468 18.59375-41.449218 41.449218-41.449218 22.859376 0 41.453126 18.59375 41.453126 41.449218v23.554688h-82.902344zm0 0"/>
    <path
        d="m163.726562 99.675781c27.484376 0 49.839844-22.359375 49.839844-49.839843 0-27.480469-22.355468-49.835938-49.839844-49.835938-27.480468 0-49.835937 22.355469-49.835937 49.839844 0 27.480468 22.355469 49.835937 49.835937 49.835937zm0-69.675781c10.9375 0 19.839844 8.898438 19.839844 19.839844 0 10.9375-8.898437 19.835937-19.839844 19.835937-10.9375 0-19.835937-8.898437-19.835937-19.835937 0-10.941406 8.898437-19.839844 19.835937-19.839844zm0 0"/>
    <path
        d="m291.828125 234.089844h112.898437c8.285157 0 15-6.71875 15-15v-38.554688c0-39.398437-32.050781-71.449218-71.449218-71.449218-39.398438 0-71.449219 32.050781-71.449219 71.449218v38.554688c0 8.28125 6.71875 15 15 15zm15-53.554688c0-22.855468 18.59375-41.449218 41.449219-41.449218 22.855468 0 41.449218 18.59375 41.449218 41.449218v23.554688h-82.898437zm0 0"/>
    <path
        d="m348.277344 99.675781c27.480468 0 49.839844-22.359375 49.839844-49.839843 0-27.480469-22.359376-49.835938-49.839844-49.835938-27.480469 0-49.835938 22.355469-49.835938 49.839844 0 27.480468 22.355469 49.835937 49.835938 49.835937zm0-69.675781c10.9375 0 19.839844 8.898438 19.839844 19.839844 0 10.9375-8.898438 19.835937-19.839844 19.835937-10.9375 0-19.835938-8.898437-19.835938-19.835937 0-10.941406 8.898438-19.839844 19.835938-19.839844zm0 0"/>
</svg>
