<svg id="Capa_1" enable-background="new 0 0 512 512" height="512" viewBox="0 0 512 512" width="512"
     xmlns="http://www.w3.org/2000/svg">
    <g>
        <path
            d="m256 22.986v-22.986l-76.899 55.869 76.899 55.868v-22.986c98.559 0 178.742 80.183 178.742 178.742 0 98.558-80.183 178.742-178.742 178.742s-178.742-80.183-178.742-178.742h-65.765c0 135.038 109.47 244.507 244.507 244.507s244.507-109.469 244.507-244.507c0-135.037-109.469-244.507-244.507-244.507z"/>
        <path
            d="m351.957 267.493c0-52.911-43.046-95.956-95.956-95.956-52.911 0-95.956 43.046-95.956 95.956s43.046 95.956 95.956 95.956 95.956-43.046 95.956-95.956zm-110.957-39.77h30v40.837l21.796 17.458-18.754 23.415-33.042-26.465z"/>
    </g>
</svg>
