<svg height="511pt" viewBox="0 -5 511.99961 511" width="511pt" xmlns="http://www.w3.org/2000/svg">
    <path
        d="m459.078125.5h-171.140625c-29.183594 0-52.925781 23.738281-52.925781 52.921875v123.21875c0 29.183594 23.742187 52.925781 52.925781 52.925781h11.121094l-3.453125 13.851563c-5.304688 13.808593 1.800781 21.910156 4.175781 24.117187 1.636719 1.519532 6.230469 5.082032 13.316406 5.082032 3.542969 0 7.714844-.890626 12.445313-3.378907.175781-.09375.351562-.1875.523437-.285156l68.796875-39.386719h64.214844c29.179687 0 52.921875-23.742187 52.921875-52.925781v-123.21875c0-29.183594-23.742188-52.921875-52.921875-52.921875zm20.09375 176.140625c0 11.085937-9.011719 20.101563-20.09375 20.101563h-68.578125c-2.859375 0-5.671875.75-8.152344 2.167968l-48.777344 27.921875 2.417969-9.707031c1.222657-4.902344.117188-10.09375-2.992187-14.074219s-7.878906-6.308593-12.929688-6.308593h-32.128906c-11.082031 0-20.097656-9.015626-20.097656-20.101563v-123.21875c0-11.082031 9.015625-20.097656 20.097656-20.097656h171.144531c11.078125 0 20.09375 9.015625 20.09375 20.097656v123.21875zm0 0"/>
    <path
        d="m315.601562 98.746094c-10.324218 0-18.722656 8.402344-18.722656 18.726562 0 10.324219 8.402344 18.722656 18.722656 18.722656 10.328126 0 18.726563-8.398437 18.726563-18.722656 0-10.324218-8.402344-18.726562-18.726563-18.726562zm0 0"/>
    <path
        d="m376.023438 98.746094c-10.324219 0-18.726563 8.402344-18.726563 18.726562 0 10.324219 8.402344 18.722656 18.726563 18.722656 10.324218 0 18.726562-8.398437 18.726562-18.722656 0-10.324218-8.398438-18.726562-18.726562-18.726562zm0 0"/>
    <path
        d="m431.410156 98.746094c-10.328125 0-18.726562 8.402344-18.726562 18.726562 0 10.324219 8.402344 18.722656 18.726562 18.722656 10.324219 0 18.726563-8.398437 18.726563-18.722656 0-10.324218-8.402344-18.726562-18.726563-18.726562zm0 0"/>
    <path
        d="m368.316406 300.410156c-2.222656-2.40625-5.109375-4.09375-8.296875-4.847656-16.875-3.980469-36.164062 2.484375-51.589843 17.292969-10.0625 9.65625-26.4375 26.285156-35.339844 35.375-10.863282-3.332031-35.796875-14.445313-71.933594-51-35.855469-36.269531-47.328125-61.03125-50.941406-72.050781 9.988281-9.5 28.453125-27.359376 38.515625-38.949219 16.546875-19.058594 19.949219-42.742188 8.671875-60.34375-.773438-1.207031-1.703125-2.308594-2.765625-3.277344l-79.054688-72.019531c-2.574219-2.34375-5.824219-3.804688-9.28125-4.179688-23.953125-2.605468-41.765625 15-50.328125 23.457032-16.242187 16.039062-28.285156 32.160156-36.8125 49.277343-10.359375 20.796875-23.472656 53.699219-17.78125 99.109375 7.078125 56.460938 41.464844 115.890625 102.214844 176.640625 57.8125 57.8125 109.550781 91.171875 158.164062 101.980469 12.078126 2.683594 23.175782 3.742188 33.292969 3.742188 25.199219 0 44.300781-6.578126 57.199219-11.015626 2.304688-.796874 4.484375-1.546874 6.410156-2.160156 20.046875-6.398437 39.445313-17.75 57.648438-33.738281l.9375-.824219c14.324218-12.566406 33.941406-29.78125 34.808594-54.722656.148437-4.316406-1.410157-8.523438-4.34375-11.699219zm-19.859375 26.882813 69.539063 75.367187c-2.136719 5.441406-6.761719 10.902344-11.976563 16.03125l-75.554687-81.484375c.230468-.222656.46875-.453125.691406-.667969 5.621094-5.390624 12-8.734374 17.300781-9.246093zm-177.949219-182.257813c2.625 6.46875-2.71875 15.25-6.5625 19.671875-.863281.996094-1.8125 2.054688-2.816406 3.160157l-81.316406-75.402344c6.984375-6.828125 13.027344-11.722656 18.613281-13.097656zm178.175782 311.132813c-2.285156.726562-4.632813 1.539062-7.121094 2.394531-33.242188 11.449219-95.121094 32.757812-214.757812-86.878906-131.339844-131.339844-91.390626-211.546875-78.261719-237.902344 2.765625-5.550781 6.035156-11.011719 9.832031-16.425781l79.726562 73.925781c-9.234374 8.984375-16.933593 16.179688-17.085937 16.324219-3.421875 3.191406-5.316406 7.695312-5.210937 12.375.089843 3.9375 2.59375 40.226562 62.003906 100.328125 59.621094 60.3125 96.761718 62.132812 100.800781 62.140625h.035156c4.433594 0 8.675781-1.792969 11.765625-4.96875.140625-.144531 7.679688-7.890625 16.773438-17.097657l73.707031 79.484376c-10.519531 7.359374-21.304687 12.820312-32.207031 16.300781zm0 0"/>
</svg>
