<svg height="429pt" viewBox="0 -25 429.208 429" width="429pt" xmlns="http://www.w3.org/2000/svg">
    <path
        d="m429.207031 270.089844-60-30.96875-143.589843 74.269531c-6.921876 3.574219-15.144532 3.574219-22.066407 0l-143.613281-74.285156-59.9375 30.984375 210.902344 109.09375c2.3125 1.183594 5.050781 1.183594 7.363281 0l210.902344-109.09375zm0 0"/>
    <path
        d="m218.257812 299.175781 210.910157-109.085937-59.9375-30.984375-143.613281 74.285156c-4.519532 2.285156-9.644532 3.074219-14.640626 2.25-2.578124-.335937-5.085937-1.09375-7.417968-2.25l-143.621094-74.285156-59.9375 30.984375 210.910156 109.085937c2.304688 1.191407 5.042969 1.191407 7.347656 0zm0 0"/>
    <path
        d="m214.585938.105469c-1.28125 0-2.542969.304687-3.683594.886719l-210.902344 109.097656 210.910156 109.09375c.925782.421875 1.921875.664062 2.9375.710937.25 0 .480469.175781.738282.175781 1.277343 0 2.539062-.304687 3.679687-.886718l210.902344-109.09375-210.902344-109.097656c-1.140625-.582032-2.402344-.886719-3.679687-.886719zm0 0"/>
</svg>
