<svg height="512pt" viewBox="0 0 512 512" width="512pt" xmlns="http://www.w3.org/2000/svg">
    <path
        d="m424.472656 301h-113.214844l58.960938-94.078125c13.5625-21.511719 20.734375-46.382813 20.734375-71.921875 0-74.4375-60.5625-135-135-135-74.441406 0-135 60.5625-135 135 0 25.539062 7.167969 50.410156 20.710937 71.886719l58.984376 94.113281h-113.21875l-87.429688 211h511.902344zm-76.933594 120h94.183594l25.277344 61h-111.683594zm-22.46875 61h-138.386718l7.582031-61h123.03125zm104.222657-91h-85.578125l-7.648438-60h68.363282zm-278.339844-256c0-57.898438 47.101563-105 105-105 57.894531 0 105 47.101562 105 105 0 19.867188-5.570313 39.203125-16.132813 55.953125l-88.867187 141.800781-88.890625-141.832031c-10.539062-16.71875-16.109375-36.054687-16.109375-55.921875zm105 254.246094 36.503906-58.246094h13.367188l7.648437 60h-115.480468l7.460937-60h13.996094zm-148.480469-58.246094h67.75l-7.460937 60h-85.152344zm-37.292968 90h93.855468l-7.585937 61h-111.546875zm0 0"/>
    <path
        d="m330.953125 135c0-41.355469-33.644531-75-75-75s-75 33.644531-75 75 33.644531 75 75 75 75-33.644531 75-75zm-120 0c0-24.8125 20.1875-45 45-45s45 20.1875 45 45-20.1875 45-45 45-45-20.1875-45-45zm0 0"/>
</svg>
