<svg height="512pt" viewBox="-2 0 512 512.0002" width="512pt" xmlns="http://www.w3.org/2000/svg">
    <path
        d="m390 215.664062v-167.308593c0-6.6875-4.429688-12.566407-10.855469-14.414063l-116-33.355468c-2.585937-.742188-5.324219-.777344-7.929687-.101563l-119.824219 31.246094-116.507813-31.21875c-4.503906-1.207031-9.316406-.25-13.015624 2.589843-3.699219 2.835938-5.867188 7.234376-5.867188 11.898438v371.332031c0 6.792969 4.566406 12.738281 11.132812 14.492188l120 32.023437c1.265626.339844 2.566407.507813 3.867188.507813 1.269531 0 2.535156-.160157 3.769531-.480469l77.109375-20.03125c20.875 57.761719 76.25 99.15625 141.121094 99.15625 82.710938 0 150-67.289062 150-150 0-71.375-50.113281-131.257812-117-146.335938zm-30-3.625c-.996094-.019531-1.996094-.039062-3-.039062-30.667969 0-59.214844 9.261719-83 25.121094v-202.199219l86 24.730469zm-330-177.488281 90.335938 24.203125v340.164063l-90.335938-24.109375zm120.335938 364.324219v-340.039062l93.664062-24.421876v228.757813c0 .09375.011719.183594.015625.277344-23.039063 26.378906-37.015625 60.859375-37.015625 98.550781 0 7.382812.546875 14.640625 1.582031 21.746094zm206.664062 83.125c-56.148438 0-103.40625-38.765625-116.433594-90.933594-.011718-.042968-.015625-.085937-.023437-.125-.007813-.023437-.015625-.046875-.023438-.070312-2.292969-9.25-3.519531-18.917969-3.519531-28.871094 0-66.167969 53.832031-120 120-120s120 53.832031 120 120-53.832031 120-120 120zm0 0"/>
    <path
        d="m388.179688 279.109375c-2.8125-2.8125-6.628907-4.394531-10.605469-4.394531-3.976563 0-7.792969 1.582031-10.605469 4.394531l-80.609375 80.609375c-2.8125 2.8125-4.394531 6.625-4.394531 10.601562l-.003906 42.433594c0 3.976563 1.582031 7.792969 4.394531 10.605469 2.816406 2.8125 6.628906 4.394531 10.609375 4.394531l42.429687-.003906c3.976563 0 7.792969-1.582031 10.605469-4.394531l80.605469-80.605469c5.859375-5.859375 5.859375-15.355469 0-21.214844zm-55.003907 118.640625-21.214843.003906.003906-21.214844 8.332031-8.335937 21.214844 21.214844zm29.546875-29.542969-21.210937-21.214843 36.0625-36.0625 21.210937 21.214843zm0 0"/>
</svg>
