<?xml version="1.0" encoding="iso-8859-1"?>
<!-- Generator: Adobe Illustrator 21.0.0, SVG Export Plug-In . SVG Version: 6.00 Build 0)  -->
<svg version="1.1" id="Capa_1" xmlns="http://www.w3.org/2000/svg" x="0px"
     y="0px"
     viewBox="0 0 512 512" style="enable-background:new 0 0 512 512;" xml:space="preserve">
<g>
	<g>
		<rect x="60.04" y="346.92" width="85.89" height="30"/>
	</g>
</g>
    <g>
	<g>
		<path d="M475.493,276.863h-63.537V25.011H0v411.956h226.006v13.515c0,20.13,16.377,36.507,36.507,36.507h212.98
			c20.13,0,36.507-16.377,36.507-36.507V313.369C512,293.24,495.623,276.863,475.493,276.863z M266.014,55.011h115.942v30.048
			H266.014V55.011z M175.942,55.011h60.071v80.088h-60.071V55.011z M30,55.011h115.942v30.048H30V55.011z M226.006,313.369v93.598
			H30V115.059h115.942v50.04h120.071v-50.04h115.942v161.804H262.513C242.383,276.863,226.006,293.239,226.006,313.369z
			 M482,450.482c0,3.588-2.919,6.507-6.507,6.507h-212.98c-3.588,0-6.507-2.919-6.507-6.507v-83.571H482V450.482z M482,336.911
			H256.006v-23.542c0-3.587,2.919-6.506,6.507-6.506h212.98c3.588,0,6.507,2.919,6.507,6.506V336.911z"/>
	</g>
</g>
    <g>
	<g>
		<rect x="286.04" y="396.94" width="165.92" height="30"/>
	</g>
</g>
    <g>
</g>
    <g>
</g>
    <g>
</g>
    <g>
</g>
    <g>
</g>
    <g>
</g>
    <g>
</g>
    <g>
</g>
    <g>
</g>
    <g>
</g>
    <g>
</g>
    <g>
</g>
    <g>
</g>
    <g>
</g>
    <g>
</g>
</svg>
