<?xml version="1.0" encoding="iso-8859-1"?>
<!-- Generator: Adobe Illustrator 19.0.0, SVG Export Plug-In . SVG Version: 6.00 Build 0)  -->
<svg version="1.1" id="Layer_1" xmlns="http://www.w3.org/2000/svg" x="0px"
     y="0px"
     viewBox="0 0 512 512" style="enable-background:new 0 0 512 512;" xml:space="preserve">
<g>
	<g>
		<path d="M423.637,366.933h-19.746c-3.678,0-6.938-2.355-8.098-5.845l-7.526-22.613c-1.306-3.917-6.852-3.883-8.107,0.043
			l-7.228,22.485c-1.143,3.533-4.42,5.931-8.132,5.931h-19.985c-4.07,0-5.828,5.163-2.603,7.646l15.718,12.1
			c2.893,2.227,4.045,6.042,2.876,9.498l-8.474,25.02c-1.289,3.789,2.893,7.108,6.289,4.992l21.214-13.167
			c2.773-1.724,6.281-1.707,9.037,0.026l20.872,13.133c3.379,2.125,7.569-1.143,6.323-4.941l-8.218-25.148
			c-1.118-3.413,0.026-7.168,2.859-9.378l15.548-12.151C429.457,372.062,427.691,366.933,423.637,366.933z"/>
	</g>
</g>
    <g>
	<g>
		<path d="M384,256c-70.579,0-128,57.421-128,128s57.421,128,128,128s128-57.421,128-128S454.579,256,384,256z M466.057,365.124
			l-40.115,31.351l17.365,53.137c1.118,3.413-0.026,7.168-2.859,9.378c-2.842,2.21-6.767,2.406-9.788,0.495l-46.353-29.158
			l-47.01,29.184c-1.382,0.862-2.935,1.289-4.497,1.289c-1.886,0-3.755-0.623-5.308-1.852c-2.816-2.236-3.934-6.007-2.773-9.421
			l17.963-53.043l-40.695-31.317c-2.893-2.227-4.053-6.05-2.867-9.515c1.178-3.465,4.429-5.786,8.081-5.786h51.379l17.289-53.811
			c1.135-3.516,4.395-5.897,8.081-5.922c0.009,0,0.026,0,0.043,0c3.678,0,6.938,2.347,8.098,5.837l17.954,53.897H460.8
			c3.644,0,6.886,2.313,8.064,5.751C470.042,359.057,468.924,362.88,466.057,365.124z"/>
	</g>
</g>
    <g>
	<g>
		<path d="M443.733,51.2h-182.05c-1.843,0-3.635-0.597-5.111-1.707L197.402,5.12C192.973,1.792,187.58,0,182.042,0H51.2
			C37.06,0,25.6,11.46,25.6,25.6v68.267c0,4.71,3.823,8.533,8.533,8.533H76.8c4.71,0,8.533-3.823,8.533-8.533v-8.533
			c0-4.71,3.823-8.533,8.533-8.533h307.2c4.71,0,8.533,3.823,8.533,8.533v8.533c0,4.71,3.823,8.533,8.533,8.533H460.8
			c4.71,0,8.533-3.823,8.533-8.533V76.8C469.333,62.66,457.873,51.2,443.733,51.2z M102.4,42.667H68.267
			c-4.71,0-8.533-3.823-8.533-8.533c0-4.71,3.823-8.533,8.533-8.533H102.4c4.71,0,8.533,3.823,8.533,8.533
			C110.933,38.844,107.11,42.667,102.4,42.667z M136.533,42.667c-4.71,0-8.533-3.823-8.533-8.533c0-4.71,3.823-8.533,8.533-8.533
			s8.533,3.823,8.533,8.533C145.067,38.844,141.244,42.667,136.533,42.667z M179.2,42.667h-8.533c-4.71,0-8.533-3.823-8.533-8.533
			c0-4.71,3.823-8.533,8.533-8.533h8.533c4.71,0,8.533,3.823,8.533,8.533C187.733,38.844,183.91,42.667,179.2,42.667z"/>
	</g>
</g>
    <g>
	<g>
		<circle cx="59.733" cy="187.733" r="17.067"/>
	</g>
</g>
    <g>
	<g>
		<path d="M469.333,119.467H25.6c-14.14,0-25.6,11.46-25.6,25.6v324.267c0,14.08,11.52,25.6,25.6,25.6h243.917
			c2.022,0,4.062-0.717,5.692-2.176c3.516-3.14,3.806-8.533,0.666-12.049c-33.57-37.495-45.884-90.342-30.191-140.851
			c13.858-44.621,49.468-80.247,94.08-94.14c50.543-15.735,103.45-3.422,140.971,30.174c3.516,3.149,8.9,2.85,12.049-0.666
			c1.758-1.971,2.15-7.518,2.15-7.851V145.067C494.933,130.927,483.473,119.467,469.333,119.467z M87.296,212.727
			c6.485,9.276,6.571,18.526,6.571,26.206c0,4.71-3.823,8.533-8.533,8.533c-4.71,0-8.533-3.823-8.533-8.533
			c0-6.741-0.034-11.887-3.857-17.024c-1.015-1.365-2.85-1.749-4.489-1.289c-2.782,0.777-5.692,1.246-8.721,1.246
			s-5.939-0.469-8.721-1.246c-1.638-0.461-3.473-0.077-4.489,1.289c-3.823,5.137-3.857,10.283-3.857,17.024
			c0,4.71-3.823,8.533-8.533,8.533c-4.71,0-8.533-3.823-8.533-8.533c0-7.68,0.085-16.93,6.562-26.206
			c1.101-1.579,1.101-3.61-0.034-5.171c-5.828-8.013-8.363-18.543-5.069-29.79c3.371-11.503,13.022-20.599,24.704-23.262
			c22.272-5.069,42.104,11.81,42.104,33.229c0,7.424-2.466,14.242-6.528,19.831C86.204,209.118,86.195,211.149,87.296,212.727z
			 M213.333,315.733c-4.71,0-8.533-3.823-8.533-8.533c0-43.597-19.874-67.191-29.261-76.894c-1.05-1.092-2.603-1.468-4.07-1.109
			c-3.004,0.725-6.101,1.203-9.335,1.203s-6.332-0.478-9.336-1.203c-1.468-0.358-3.021,0.026-4.07,1.109
			c-9.387,9.702-29.261,33.297-29.261,76.894c0,4.71-3.823,8.533-8.533,8.533s-8.533-3.823-8.533-8.533
			c0-44.186,17.971-70.673,29.662-84.002c1.502-1.715,1.237-4.224-0.358-5.854c-9.344-9.532-14.37-23.279-11.366-38.246
			c3.277-16.35,16.35-29.67,32.674-33.075c27.486-5.734,51.789,15.206,51.789,41.711c0,11.563-4.719,21.948-12.237,29.611
			c-1.596,1.621-1.86,4.139-0.358,5.854c11.691,13.329,29.662,39.817,29.662,84.002C221.867,311.91,218.044,315.733,213.333,315.733
			z M292.105,212.727c6.477,9.276,6.562,18.526,6.562,26.206c0,4.71-3.823,8.533-8.533,8.533s-8.533-3.823-8.533-8.533
			c0-6.741-0.034-11.887-3.857-17.024c-1.016-1.365-2.85-1.749-4.489-1.289c-2.782,0.777-5.692,1.246-8.721,1.246
			c-3.029,0-5.939-0.469-8.721-1.246c-1.638-0.461-3.473-0.077-4.489,1.289c-3.823,5.137-3.857,10.283-3.857,17.024
			c0,4.71-3.823,8.533-8.533,8.533s-8.533-3.823-8.533-8.533c0-7.68,0.085-16.93,6.562-26.206c1.101-1.579,1.101-3.61-0.034-5.171
			c-5.828-8.013-8.363-18.543-5.069-29.79c3.371-11.503,13.022-20.599,24.704-23.262c22.272-5.069,42.103,11.81,42.103,33.229
			c0,7.424-2.466,14.242-6.528,19.831C291.004,209.118,291.004,211.149,292.105,212.727z"/>
	</g>
</g>
    <g>
	<g>
		<circle cx="264.533" cy="187.733" r="17.067"/>
	</g>
</g>
    <g>
	<g>
		<circle cx="162.133" cy="187.733" r="25.6"/>
	</g>
</g>
    <g>
</g>
    <g>
</g>
    <g>
</g>
    <g>
</g>
    <g>
</g>
    <g>
</g>
    <g>
</g>
    <g>
</g>
    <g>
</g>
    <g>
</g>
    <g>
</g>
    <g>
</g>
    <g>
</g>
    <g>
</g>
    <g>
</g>
</svg>
