<svg xmlns="http://www.w3.org/2000/svg" height="512pt" version="1.1" viewBox="0 -34 512.00109 512" width="512pt">
    <g id="surface1">
        <path
            d="M 476.851562 147.152344 L 476.851562 120.035156 C 476.851562 89.0625 452.074219 64.285156 421.097656 64.285156 L 274.882812 64.285156 C 263.429688 64.285156 252.675781 57.972656 246.832031 48.15625 L 234.679688 27.46875 C 224.507812 10.753906 206.160156 0 186.523438 0 L 90.800781 0 C 75.371094 0 60.878906 6.3125 50.242188 17.53125 C 39.605469 28.753906 34.113281 43.597656 34.816406 59.023438 L 38.789062 147.265625 L 35.050781 147.265625 C 24.882812 147.265625 15.296875 151.589844 8.632812 159.1875 C 1.972656 166.785156 -1.066406 176.953125 0.335938 187.003906 L 29.207031 395.636719 C 33.0625 423.21875 56.90625 444.140625 84.722656 444.140625 L 427.527344 444.140625 C 455.460938 444.140625 479.304688 423.101562 483.164062 395.402344 L 511.679688 187.007812 C 513.082031 176.957031 509.8125 166.785156 503.148438 159.191406 C 496.605469 151.59375 487.371094 147.152344 476.851562 147.152344 Z M 58.074219 58.089844 C 57.722656 49.089844 60.878906 40.324219 67.074219 33.777344 C 73.269531 27.234375 81.683594 23.375 90.683594 23.375 L 186.40625 23.375 C 197.859375 23.375 208.613281 29.6875 214.457031 39.503906 L 226.613281 60.191406 C 236.664062 77.023438 255.132812 87.777344 274.769531 87.777344 L 420.984375 87.777344 C 438.980469 87.777344 453.359375 102.035156 453.359375 120.152344 L 453.359375 147.265625 L 62.164062 147.265625 Z M 488.539062 183.734375 L 460.019531 392.246094 C 457.800781 408.375 443.890625 420.765625 427.644531 420.765625 L 84.839844 420.765625 C 68.59375 420.765625 54.683594 408.375 52.464844 392.363281 L 23.359375 183.851562 C 23.359375 180.460938 23.828125 177.1875 26.164062 174.617188 C 28.386719 172.046875 31.542969 170.644531 34.933594 170.644531 L 476.96875 170.644531 C 480.355469 170.644531 483.511719 171.929688 485.734375 174.617188 C 488.070312 177.1875 489.007812 180.34375 488.539062 183.734375 Z M 488.539062 183.734375 "
            style=" stroke:none;fill-rule:nonzero;fill:rgb(0%,0%,0%);fill-opacity:1;"/>
        <path
            d="M 341.503906 272.328125 C 349.6875 266.015625 355.0625 256.082031 355.0625 244.976562 C 355.0625 225.925781 339.636719 210.5 320.585938 210.5 C 301.53125 210.5 286.105469 225.925781 286.105469 244.976562 C 286.105469 245.328125 286.105469 245.679688 286.105469 246.03125 C 280.261719 235.277344 268.925781 227.914062 255.832031 227.914062 C 242.742188 227.914062 231.289062 235.277344 225.5625 246.03125 C 225.5625 245.679688 225.5625 245.445312 225.5625 245.09375 C 225.5625 244.976562 225.5625 244.976562 225.5625 244.859375 C 225.5625 225.808594 210.132812 210.382812 191.082031 210.382812 C 172.03125 210.382812 156.601562 226.042969 156.601562 245.09375 C 156.601562 256.195312 161.980469 266.132812 170.277344 272.445312 C 152.746094 278.636719 140.242188 295.46875 140.242188 315.105469 L 140.242188 351.453125 C 140.242188 357.882812 145.265625 363.492188 151.695312 363.492188 L 204.523438 363.492188 L 204.523438 369.101562 C 204.523438 375.53125 210.015625 381.023438 216.445312 381.023438 L 295.105469 381.023438 C 301.53125 381.023438 307.261719 375.648438 307.261719 369.101562 L 307.261719 363.492188 L 360.089844 363.492188 C 366.519531 363.492188 371.542969 357.882812 371.542969 351.453125 L 371.542969 315.105469 C 371.660156 295.351562 359.035156 278.523438 341.503906 272.328125 Z M 320.585938 233.992188 C 326.660156 233.992188 331.6875 239.015625 331.6875 245.09375 C 331.6875 251.289062 326.777344 256.199219 320.585938 256.199219 C 314.507812 256.199219 309.480469 251.171875 309.480469 245.09375 C 309.480469 239.015625 314.507812 233.992188 320.585938 233.992188 Z M 299.78125 272.5625 C 294.054688 274.664062 288.910156 277.820312 284.46875 281.796875 C 288.210938 276.300781 290.3125 269.640625 290.3125 262.511719 C 290.3125 262.160156 290.3125 261.808594 290.3125 261.457031 C 292.648438 265.78125 295.921875 269.523438 299.78125 272.5625 Z M 234.679688 290.328125 C 234.445312 289.976562 234.210938 289.507812 233.859375 289.160156 C 234.328125 289.507812 234.679688 289.859375 235.144531 290.210938 C 235.027344 290.210938 234.792969 290.210938 234.679688 290.328125 Z M 277.105469 290.328125 C 276.871094 290.210938 276.753906 290.210938 276.519531 290.09375 C 277.105469 289.625 277.6875 289.273438 278.15625 288.808594 C 277.804688 289.273438 277.457031 289.742188 277.105469 290.328125 Z M 255.832031 251.40625 C 261.910156 251.40625 266.9375 256.433594 266.9375 262.507812 C 266.9375 268.585938 261.910156 273.613281 255.832031 273.613281 C 249.753906 273.613281 244.730469 268.585938 244.730469 262.507812 C 244.730469 256.433594 249.753906 251.40625 255.832031 251.40625 Z M 221.355469 261.339844 C 221.355469 261.691406 221.355469 262.160156 221.355469 262.507812 C 221.355469 269.523438 223.457031 275.949219 226.964844 281.328125 C 222.640625 277.46875 217.496094 274.429688 212.003906 272.445312 C 215.859375 269.523438 219.015625 265.78125 221.355469 261.339844 Z M 191.082031 233.992188 C 197.160156 233.992188 202.070312 238.898438 202.183594 244.976562 C 201.953125 251.289062 197.160156 256.199219 191.082031 256.199219 C 185.003906 256.199219 179.980469 251.171875 179.980469 245.09375 C 179.980469 239.019531 184.886719 233.992188 191.082031 233.992188 Z M 163.617188 340.117188 L 163.617188 315.105469 C 163.617188 303.066406 173.199219 293.367188 185.355469 293.367188 L 196.925781 293.367188 C 204.640625 293.367188 211.535156 297.339844 215.507812 303.765625 C 208.847656 311.597656 204.640625 321.765625 204.640625 332.871094 L 204.640625 340.117188 Z M 284 357.648438 L 227.898438 357.648438 L 227.898438 332.871094 C 227.898438 320.832031 237.949219 310.898438 250.105469 310.898438 L 261.675781 310.898438 C 273.714844 310.898438 284.117188 320.71875 284.117188 332.871094 L 284.117188 357.648438 Z M 348.285156 340.117188 L 307.375 340.117188 L 307.375 332.871094 C 307.375 321.769531 303.167969 311.714844 296.507812 303.886719 C 300.480469 297.457031 307.375 293.367188 315.089844 293.367188 L 326.660156 293.367188 C 338.699219 293.367188 348.402344 303.066406 348.402344 315.105469 L 348.402344 340.117188 Z M 348.285156 340.117188 "
            style=" stroke:none;fill-rule:nonzero;fill:rgb(0%,0%,0%);fill-opacity:1;"/>
    </g>
</svg>
