<svg id="Layer_2" enable-background="new 0 0 24 24" height="512" viewBox="0 0 24 24" width="512"
     xmlns="http://www.w3.org/2000/svg">
    <g>
        <path
            d="m4.5 24c-.064 0-.129-.013-.191-.038-.187-.077-.309-.26-.309-.462v-4.5h-1.5c-1.378 0-2.5-1.121-2.5-2.5v-14c0-1.379 1.122-2.5 2.5-2.5h19c1.378 0 2.5 1.121 2.5 2.5v14c0 1.379-1.122 2.5-2.5 2.5h-11.793l-4.854 4.854c-.095.095-.223.146-.353.146zm-2-23c-.827 0-1.5.673-1.5 1.5v14c0 .827.673 1.5 1.5 1.5h2c.276 0 .5.224.5.5v3.793l4.146-4.146c.094-.094.221-.147.354-.147h12c.827 0 1.5-.673 1.5-1.5v-14c0-.827-.673-1.5-1.5-1.5z"/>
    </g>
    <g>
        <path
            d="m12.5 16c-3.584 0-6.5-2.916-6.5-6.5s2.916-6.5 6.5-6.5 6.5 2.916 6.5 6.5-2.916 6.5-6.5 6.5zm0-12c-3.033 0-5.5 2.468-5.5 5.5s2.467 5.5 5.5 5.5 5.5-2.468 5.5-5.5-2.467-5.5-5.5-5.5z"/>
    </g>
    <g>
        <path
            d="m14.5 12c-.128 0-.256-.049-.354-.146l-2-2c-.093-.094-.146-.221-.146-.354v-3c0-.276.224-.5.5-.5s.5.224.5.5v2.793l1.854 1.854c.195.195.195.512 0 .707-.098.097-.226.146-.354.146z"/>
    </g>
</svg>
