<?xml version="1.0" encoding="iso-8859-1"?>
<!-- Generator: Adobe Illustrator 19.0.0, SVG Export Plug-In . SVG Version: 6.00 Build 0)  -->
<svg xmlns="http://www.w3.org/2000/svg" version="1.1" id="Layer_1" x="0px"
     y="0px" viewBox="0 0 512.015 512.015" style="enable-background:new 0 0 512.015 512.015;" xml:space="preserve"
     width="512" height="512">
<g>
	<g>
		<g>
			<g>
				<g>
					<g>
						<g>
							<g>
								<path
                                    d="M393.482,328.75c-3.331,0-6.622-1.046-9.434-3.088c-4.57-3.319-7.033-8.663-6.586-14.295l2.803-35.55L357.099,248.7          c-3.667-4.287-4.816-10.056-3.073-15.427c1.744-5.371,6.063-9.365,11.555-10.683l34.685-8.32l18.626-30.413          c2.957-4.818,8.088-7.689,13.731-7.689c0.003,0,0.005,0,0.008,0c5.645,0.003,10.773,2.878,13.72,7.69l18.626,30.412          l34.684,8.319c5.493,1.318,9.812,5.313,11.556,10.685c1.744,5.37,0.593,11.139-3.077,15.431l-23.161,27.112l2.804,35.554          c0.446,5.627-2.017,10.971-6.587,14.291c-4.57,3.319-10.413,4.009-15.63,1.844l-32.944-13.651l-32.95,13.653          C397.666,328.339,395.566,328.75,393.482,328.75z M467.844,312.947h0.01H467.844z M432.621,293.03          c1.301,0,2.602,0.254,3.828,0.762l30.895,12.801l-2.629-33.334c-0.208-2.645,0.643-5.264,2.366-7.281l21.72-25.425          l-32.518-7.8c-2.581-0.619-4.809-2.239-6.195-4.502l-17.465-28.518l-17.465,28.518c-1.386,2.263-3.615,3.883-6.195,4.502          l-32.518,7.8l21.72,25.425c1.723,2.017,2.574,4.637,2.366,7.281l-2.629,33.334l30.894-12.801          C430.019,293.284,431.32,293.03,432.621,293.03z"/>
							</g>
						</g>
					</g>
				</g>
			</g>
		</g>
	</g>
    <g>
		<g>
			<g>
				<g>
					<g>
						<g>
							<g>
								<path
                                    d="M40.254,328.75c-3.331,0-6.623-1.046-9.434-3.088c-4.57-3.32-7.033-8.664-6.586-14.295l2.804-35.55L3.872,248.7          c-3.667-4.287-4.817-10.056-3.073-15.426c1.744-5.372,6.063-9.366,11.555-10.684l34.685-8.32l18.626-30.413          c2.957-4.818,8.088-7.689,13.731-7.689c0.003,0,0.005,0,0.008,0c5.645,0.003,10.773,2.878,13.72,7.69l18.626,30.412          l34.684,8.319c5.493,1.318,9.813,5.313,11.556,10.685c1.744,5.371,0.593,11.14-3.077,15.431l-23.161,27.112l2.804,35.554          c0.446,5.628-2.017,10.972-6.587,14.291c-4.571,3.32-10.414,4.008-15.629,1.843l-32.944-13.65l-32.95,13.653          C44.438,328.339,42.338,328.75,40.254,328.75z M114.616,312.947h0.01H114.616z M23.216,240.552l21.72,25.425          c1.723,2.018,2.574,4.637,2.366,7.281l-2.629,33.334l30.895-12.801c2.451-1.016,5.205-1.016,7.655,0l30.894,12.801          l-2.629-33.334c-0.208-2.645,0.643-5.265,2.366-7.281l21.72-25.425l-32.518-7.8c-2.581-0.619-4.809-2.239-6.195-4.502          l-17.465-28.518l-17.465,28.518c-1.386,2.263-3.615,3.883-6.195,4.502L23.216,240.552z M139.713,235.705          c-0.002,0.003-0.004,0.005-0.006,0.008l0.002-0.003C139.71,235.708,139.712,235.707,139.713,235.705z"/>
							</g>
						</g>
					</g>
				</g>
			</g>
		</g>
	</g>
    <g>
		<g>
			<g>
				<path
                    d="M392.217,152.191c-2.293-7.068-7.978-12.325-15.207-14.062l-66.969-16.063l-35.965-58.724      c-3.877-6.332-10.626-10.114-18.053-10.118h-0.012c-7.427,0-14.181,3.778-18.071,10.117l-35.965,58.725l-66.972,16.064      c-7.226,1.735-12.91,6.992-15.204,14.061c-2.293,7.066-0.78,14.656,4.045,20.298l44.729,52.359l-5.413,68.646      c-0.587,7.409,2.653,14.44,8.667,18.809c3.699,2.688,8.031,4.064,12.414,4.064c2.743,0,5.507-0.539,8.147-1.635l67.449-27.95      c5.103-2.114,7.525-7.964,5.411-13.066c-2.114-5.102-7.964-7.524-13.066-5.41l-35.603,14.751v-38.492      c0-3.157,2.583-5.74,5.74-5.74h67.39c3.165,0,5.73,2.565,5.73,5.73v53.257c-0.001,0.066,0.001,0.205,0.005,0.401      c0.092,4.043,2.593,7.657,6.359,9.13c0.007,0.003,0.014,0.005,0.02,0.008l17.802,7.38c6.863,2.848,14.551,1.94,20.565-2.428      c6.014-4.368,9.253-11.399,8.667-18.805l-5.414-68.649l44.725-52.355C392.996,166.847,394.51,159.257,392.217,152.191z       M225.9,188.714c0-16.602,13.506-30.108,30.108-30.108c16.602,0,30.108,13.507,30.108,30.108      c0,16.602-13.506,30.108-30.108,30.108C239.406,218.823,225.9,205.316,225.9,188.714z M372.964,159.499l-47.42,55.51      c-1.723,2.018-2.574,4.637-2.366,7.281l5.74,72.784c0.014,0.18,0.052,0.658-0.483,1.047c-0.536,0.39-0.978,0.208-1.149,0.135      l-11.849-4.912v-46.78c0-12.192-8.517-22.431-19.911-25.076c6.633-8.499,10.589-19.182,10.589-30.773      c0-27.63-22.478-50.108-50.108-50.108c-27.629,0-50.108,22.479-50.108,50.108c0,11.591,3.956,22.275,10.589,30.773      c-11.394,2.645-19.911,12.884-19.911,25.076v46.78l-11.854,4.914c-0.166,0.068-0.608,0.253-1.145-0.137      c-0.535-0.389-0.497-0.867-0.482-1.051l5.74-72.78c0.208-2.645-0.643-5.264-2.366-7.281l-47.424-55.514      c-0.117-0.138-0.429-0.503-0.226-1.13c0.205-0.632,0.675-0.745,0.849-0.786l71-17.03c2.581-0.619,4.809-2.239,6.195-4.502      l38.125-62.251c0.096-0.156,0.35-0.571,1.021-0.571c0,0,0.001,0,0.001,0c0.664,0,0.914,0.408,1.008,0.563l38.13,62.26      c1.386,2.263,3.615,3.883,6.195,4.502l70.997,17.029c0.177,0.042,0.647,0.155,0.852,0.787      C373.397,158.992,373.085,159.357,372.964,159.499z"/>
			</g>
		</g>
	</g>
    <g>
		<g>
			<g>
				<g>
					<g>
						<g>
							<g>
								<path
                                    d="M432.621,458.791H79.394c-5.523,0-10-4.477-10-10v-99.508c0-5.522,4.477-10,10-10h196.28c5.523,0,10,4.478,10,10          s-4.477,10-10,10H89.394v79.508h333.228v-79.508h-51.614c-5.523,0-10-4.478-10-10s4.477-10,10-10h61.614          c5.523,0,10,4.478,10,10v99.508C442.621,454.313,438.144,458.791,432.621,458.791z"/>
							</g>
						</g>
					</g>
				</g>
			</g>
		</g>
        <g>
			<g>
				<g>
					<g>
						<g>
							<g>
								<path
                                    d="M325.008,359.277c-2.63,0-5.21-1.06-7.07-2.92c-0.46-0.46-0.88-0.979-1.24-1.52c-0.36-0.551-0.67-1.13-0.92-1.73          c-0.25-0.6-0.45-1.229-0.57-1.87c-0.13-0.649-0.2-1.3-0.2-1.95c0-2.64,1.07-5.22,2.93-7.069c0.46-0.47,0.97-0.88,1.52-1.25          c0.54-0.36,1.12-0.67,1.72-0.92c0.61-0.25,1.24-0.44,1.88-0.57c1.29-0.26,2.61-0.26,3.9,0c0.64,0.13,1.27,0.32,1.88,0.57          c0.6,0.25,1.18,0.56,1.72,0.92c0.55,0.37,1.06,0.78,1.52,1.25c1.86,1.85,2.93,4.43,2.93,7.069c0,0.65-0.07,1.301-0.2,1.95          c-0.13,0.641-0.32,1.271-0.57,1.87c-0.25,0.601-0.56,1.18-0.92,1.73c-0.36,0.54-0.78,1.06-1.24,1.52          C330.218,358.217,327.637,359.277,325.008,359.277z"/>
							</g>
						</g>
					</g>
				</g>
			</g>
		</g>
	</g>
    <g>
		<g>
			<g>
				<g>
					<g>
						<g>
							<g>
								<path
                                    d="M328.341,393.039H183.674c-5.523,0-10-4.478-10-10c0-5.522,4.477-10,10-10h144.667c5.523,0,10,4.478,10,10          C338.341,388.561,333.864,393.039,328.341,393.039z"/>
							</g>
						</g>
					</g>
				</g>
			</g>
		</g>
        <g>
			<g>
				<g>
					<g>
						<g>
							<g>
								<path
                                    d="M297.341,425.036h-82.667c-5.523,0-10-4.478-10-10c0-5.522,4.477-10,10-10h82.667c5.523,0,10,4.478,10,10          C307.341,420.558,302.864,425.036,297.341,425.036z"/>
							</g>
						</g>
					</g>
				</g>
			</g>
		</g>
	</g>
</g>















</svg>
